REM DIRINDEX 1\5,1\2\6,1\2\7,1\3\8,1\3\9,1\4\10,1\4\11,1\4\12
REM DIRNAME cjc026,folder01,folder02,folder03,folder04,folder05,folder06,folder07,folder08,folder09,folder10,folder11
TITLE ""
FILE "EJE_DB3000_5th_4B_32.mp3" MP3
  TRACK 01 AUDIO
    TITLE "0:"
    INDEX 01 00:00:00
  TRACK 02 AUDIO
    TITLE "10:cjc026_09411"
    INDEX 01 00:00:08
  TRACK 03 AUDIO
    TITLE "0:"
    INDEX 01 00:01:30
  TRACK 04 AUDIO
    TITLE "11:cjc026_09412"
    INDEX 01 00:01:68
  TRACK 05 AUDIO
    TITLE "0:"
    INDEX 01 00:03:12
  TRACK 06 AUDIO
    TITLE "12:cjc026_09413"
    INDEX 01 00:03:47
  TRACK 07 AUDIO
    TITLE "0:"
    INDEX 01 00:04:69
  TRACK 08 AUDIO
    TITLE "10:cjc026_09414"
    INDEX 01 00:05:30
  TRACK 09 AUDIO
    TITLE "0:"
    INDEX 01 00:06:63
  TRACK 10 AUDIO
    TITLE "11:cjc026_09415"
    INDEX 01 00:07:25
  TRACK 11 AUDIO
    TITLE "0:"
    INDEX 01 00:08:69
  TRACK 12 AUDIO
    TITLE "12:cjc026_09416"
    INDEX 01 00:09:29
  TRACK 13 AUDIO
    TITLE "0:"
    INDEX 01 00:10:60
  TRACK 14 AUDIO
    TITLE "10:cjc026_09417"
    INDEX 01 00:11:22
  TRACK 15 AUDIO
    TITLE "0:"
    INDEX 01 00:12:53
  TRACK 16 AUDIO
    TITLE "11:cjc026_09418"
    INDEX 01 00:13:13
  TRACK 17 AUDIO
    TITLE "0:"
    INDEX 01 00:14:46
  TRACK 18 AUDIO
    TITLE "12:cjc026_09419"
    INDEX 01 00:15:06
  TRACK 19 AUDIO
    TITLE "0:"
    INDEX 01 00:16:33
  TRACK 20 AUDIO
    TITLE "10:cjc026_09420"
    INDEX 01 00:16:69
  TRACK 21 AUDIO
    TITLE "0:"
    INDEX 01 00:18:21
  TRACK 22 AUDIO
    TITLE "11:cjc026_09421"
    INDEX 01 00:18:59
  TRACK 23 AUDIO
    TITLE "0:"
    INDEX 01 00:20:20
  TRACK 24 AUDIO
    TITLE "12:cjc026_09422"
    INDEX 01 00:20:55
  TRACK 25 AUDIO
    TITLE "0:"
    INDEX 01 00:22:07
  TRACK 26 AUDIO
    TITLE "10:cjc026_09423"
    INDEX 01 00:22:42
  TRACK 27 AUDIO
    TITLE "0:"
    INDEX 01 00:23:57
  TRACK 28 AUDIO
    TITLE "11:cjc026_09424"
    INDEX 01 00:24:22
  TRACK 29 AUDIO
    TITLE "0:"
    INDEX 01 00:25:66
  TRACK 30 AUDIO
    TITLE "12:cjc026_09425"
    INDEX 01 00:26:26
  TRACK 31 AUDIO
    TITLE "0:"
    INDEX 01 00:27:45
  TRACK 32 AUDIO
    TITLE "10:cjc026_09426"
    INDEX 01 00:28:06
  TRACK 33 AUDIO
    TITLE "0:"
    INDEX 01 00:29:20
  TRACK 34 AUDIO
    TITLE "11:cjc026_09427"
    INDEX 01 00:29:57
  TRACK 35 AUDIO
    TITLE "0:"
    INDEX 01 00:31:45
  TRACK 36 AUDIO
    TITLE "12:cjc026_09428"
    INDEX 01 00:32:05
  TRACK 37 AUDIO
    TITLE "0:"
    INDEX 01 00:33:19
  TRACK 38 AUDIO
    TITLE "10:cjc026_09429"
    INDEX 01 00:33:54
  TRACK 39 AUDIO
    TITLE "0:"
    INDEX 01 00:35:07
  TRACK 40 AUDIO
    TITLE "11:cjc026_09430"
    INDEX 01 00:35:45
  TRACK 41 AUDIO
    TITLE "0:"
    INDEX 01 00:37:16
  TRACK 42 AUDIO
    TITLE "12:cjc026_09431"
    INDEX 01 00:37:51
  TRACK 43 AUDIO
    TITLE "0:"
    INDEX 01 00:39:04
  TRACK 44 AUDIO
    TITLE "10:cjc026_09432"
    INDEX 01 00:39:42
  TRACK 45 AUDIO
    TITLE "0:"
    INDEX 01 00:41:13
  TRACK 46 AUDIO
    TITLE "11:cjc026_09433"
    INDEX 01 00:41:46
  TRACK 47 AUDIO
    TITLE "0:"
    INDEX 01 00:43:58
  TRACK 48 AUDIO
    TITLE "12:cjc026_09434"
    INDEX 01 00:44:15
  TRACK 49 AUDIO
    TITLE "0:"
    INDEX 01 00:45:62
  TRACK 50 AUDIO
    TITLE "10:cjc026_09435"
    INDEX 01 00:46:24
  TRACK 51 AUDIO
    TITLE "0:"
    INDEX 01 00:47:57
  TRACK 52 AUDIO
    TITLE "11:cjc026_09436"
    INDEX 01 00:48:20
  TRACK 53 AUDIO
    TITLE "0:"
    INDEX 01 00:49:64
  TRACK 54 AUDIO
    TITLE "12:cjc026_09437"
    INDEX 01 00:50:30
  TRACK 55 AUDIO
    TITLE "0:"
    INDEX 01 00:51:65
  TRACK 56 AUDIO
    TITLE "10:cjc026_09438"
    INDEX 01 00:52:25
  TRACK 57 AUDIO
    TITLE "0:"
    INDEX 01 00:53:45
  TRACK 58 AUDIO
    TITLE "11:cjc026_09439"
    INDEX 01 00:54:05
  TRACK 59 AUDIO
    TITLE "0:"
    INDEX 01 00:55:43
  TRACK 60 AUDIO
    TITLE "12:cjc026_09440"
    INDEX 01 00:56:03
  TRACK 61 AUDIO
    TITLE "0:"
    INDEX 01 00:57:23
  TRACK 62 AUDIO
    TITLE "10:cjc026_09441"
    INDEX 01 00:57:58
  TRACK 63 AUDIO
    TITLE "0:"
    INDEX 01 00:59:05
  TRACK 64 AUDIO
    TITLE "11:cjc026_09442"
    INDEX 01 00:59:40
  TRACK 65 AUDIO
    TITLE "0:"
    INDEX 01 01:01:01
  TRACK 66 AUDIO
    TITLE "12:cjc026_09443"
    INDEX 01 01:01:39
  TRACK 67 AUDIO
    TITLE "0:"
    INDEX 01 01:02:61
  TRACK 68 AUDIO
    TITLE "10:cjc026_09444"
    INDEX 01 01:03:21
  TRACK 69 AUDIO
    TITLE "0:"
    INDEX 01 01:04:43
  TRACK 70 AUDIO
    TITLE "11:cjc026_09445"
    INDEX 01 01:05:06
  TRACK 71 AUDIO
    TITLE "0:"
    INDEX 01 01:06:58
  TRACK 72 AUDIO
    TITLE "12:cjc026_09446"
    INDEX 01 01:07:18
  TRACK 73 AUDIO
    TITLE "0:"
    INDEX 01 01:08:40
  TRACK 74 AUDIO
    TITLE "10:cjc026_09447"
    INDEX 01 01:08:73
  TRACK 75 AUDIO
    TITLE "0:"
    INDEX 01 01:10:28
  TRACK 76 AUDIO
    TITLE "11:cjc026_09448"
    INDEX 01 01:10:60
  TRACK 77 AUDIO
    TITLE "0:"
    INDEX 01 01:12:13
  TRACK 78 AUDIO
    TITLE "12:cjc026_09449"
    INDEX 01 01:12:43
  TRACK 79 AUDIO
    TITLE "0:"
    INDEX 01 01:13:70
